<svg xmlns="http://www.w3.org/2000/svg" xmlns:xlink="http://www.w3.org/1999/xlink" width="1080" zoomAndPan="magnify" viewBox="0 0 810 809.999993" height="1080" preserveAspectRatio="xMidYMid meet" version="1.0"><defs><clipPath id="3f7998c57c"><path d="M 9.542969 9.542969 L 800.453125 9.542969 L 800.453125 800.453125 L 9.542969 800.453125 Z M 9.542969 9.542969 " clip-rule="nonzero"/></clipPath><clipPath id="8086431c4f"><path d="M 405 9.542969 C 186.597656 9.542969 9.542969 186.597656 9.542969 405 C 9.542969 623.402344 186.597656 800.453125 405 800.453125 C 623.402344 800.453125 800.453125 623.402344 800.453125 405 C 800.453125 186.597656 623.402344 9.542969 405 9.542969 Z M 405 9.542969 " clip-rule="nonzero"/></clipPath></defs><g clip-path="url(#3f7998c57c)"><g clip-path="url(#8086431c4f)"><path stroke-linecap="butt" transform="matrix(0.75, 0, 0, 0.75, 9.544525, 9.544541)" fill="none" stroke-linejoin="miter" d="M 527.273993 -0.00209681 C 236.070854 -0.00209681 -0.00207481 236.070832 -0.00207481 527.273971 C -0.00207481 818.477111 236.070854 1054.544831 527.273993 1054.544831 C 818.477133 1054.544831 1054.544853 818.477111 1054.544853 527.273971 C 1054.544853 236.070832 818.477133 -0.00209681 527.273993 -0.00209681 Z M 527.273993 -0.00209681 " stroke="#ffffff" stroke-width="50" stroke-opacity="1" stroke-miterlimit="4"/></g></g><path fill="#ffffff" d="M 568.878906 507.089844 C 564.59375 494.960938 557.480469 483.835938 548.179688 474.988281 L 466.921875 397.289062 C 449.683594 380.78125 427.066406 371.753906 403.265625 371.753906 C 403.082031 371.753906 402.988281 371.753906 402.808594 371.753906 C 378.824219 371.84375 356.113281 381.144531 338.96875 397.925781 L 258.441406 476.359375 C 249.230469 485.292969 242.207031 496.511719 238.011719 508.640625 L 236.1875 514.023438 C 227.523438 539.558594 231.902344 567.648438 247.859375 589.351562 L 254.792969 598.746094 C 270.476562 619.996094 295.101562 632.035156 320.730469 632.035156 C 327.113281 632.035156 333.585938 631.304688 339.972656 629.753906 C 347.269531 628.019531 354.199219 625.285156 360.765625 621.636719 C 387.761719 606.589844 420.042969 606.5 447.128906 621.273438 C 453.695312 624.828125 460.71875 627.472656 468.015625 629.207031 C 500.207031 636.59375 533.496094 624.097656 552.921875 597.378906 L 559.761719 587.894531 C 575.539062 566.097656 579.640625 537.917969 570.796875 512.472656 Z M 547.722656 579.046875 L 540.882812 588.53125 C 525.015625 610.417969 497.835938 620.632812 471.480469 614.523438 C 465.550781 613.15625 459.808594 610.96875 454.425781 608.046875 C 422.78125 590.8125 385.113281 590.996094 353.558594 608.503906 C 348.179688 611.515625 342.523438 613.703125 336.597656 615.160156 C 310.332031 621.453125 282.972656 611.515625 266.921875 589.808594 L 259.992188 580.414062 C 246.859375 562.722656 243.300781 539.648438 250.414062 518.855469 L 252.238281 513.476562 C 255.613281 503.535156 261.359375 494.414062 268.929688 487.027344 L 349.457031 408.597656 C 364.503906 393.914062 383.929688 386.617188 403.265625 386.617188 C 422.414062 386.617188 441.566406 393.824219 456.613281 408.140625 L 537.875 485.84375 C 545.441406 493.136719 551.371094 502.167969 554.835938 512.105469 L 556.75 517.488281 C 563.957031 538.191406 560.582031 561.171875 547.722656 579.046875 Z M 547.722656 579.046875 " fill-opacity="1" fill-rule="nonzero"/><path fill="#ffffff" d="M 268.378906 438.691406 C 283.15625 431.578125 293.003906 416.894531 296.105469 397.46875 C 299.023438 379.046875 295.558594 358.253906 286.253906 338.921875 C 276.953125 319.585938 262.816406 303.992188 246.585938 294.78125 C 229.4375 285.113281 211.835938 283.746094 197.0625 290.859375 C 182.289062 297.972656 172.441406 312.65625 169.339844 332.082031 C 166.421875 350.503906 169.886719 371.296875 179.1875 390.628906 C 188.492188 409.964844 202.625 425.558594 218.859375 434.769531 C 228.800781 440.332031 238.832031 443.160156 248.40625 443.160156 C 255.429688 443.160156 262.179688 441.703125 268.378906 438.691406 Z M 192.59375 384.15625 C 184.570312 367.558594 181.558594 349.957031 184.023438 334.542969 C 186.300781 320.042969 193.234375 309.371094 203.445312 304.449219 C 207.550781 302.441406 212.109375 301.4375 216.851562 301.4375 C 223.875 301.4375 231.445312 303.625 239.105469 307.914062 C 252.785156 315.574219 264.640625 328.890625 272.667969 345.488281 C 280.691406 362.085938 283.703125 379.6875 281.238281 395.097656 C 278.960938 409.601562 272.027344 420.269531 261.8125 425.195312 C 251.601562 430.121094 238.921875 428.933594 226.15625 421.730469 C 212.566406 414.070312 200.621094 400.753906 192.59375 384.15625 Z M 192.59375 384.15625 " fill-opacity="1" fill-rule="nonzero"/><path fill="#ffffff" d="M 636.550781 334.179688 C 629.800781 315.664062 617.308594 303.261719 601.4375 299.066406 C 585.570312 294.871094 568.605469 299.613281 553.558594 312.382812 C 539.332031 324.511719 528.480469 342.570312 523.007812 363.269531 C 517.535156 383.972656 518.082031 405.039062 524.558594 422.640625 C 531.308594 441.15625 543.800781 453.558594 559.667969 457.753906 C 563.410156 458.757812 567.238281 459.210938 571.160156 459.210938 C 583.5625 459.210938 596.148438 454.195312 607.550781 444.4375 C 621.777344 432.308594 632.628906 414.25 638.101562 393.550781 C 643.574219 372.847656 642.933594 351.78125 636.550781 334.179688 Z M 623.601562 389.71875 C 618.949219 407.503906 609.738281 422.914062 597.882812 433.039062 C 586.753906 442.523438 574.535156 446.171875 563.5 443.253906 C 552.464844 440.332031 543.710938 431.214844 538.601562 417.441406 C 533.222656 402.761719 532.855469 384.886719 537.507812 367.101562 C 542.160156 349.316406 551.371094 333.90625 563.226562 323.78125 C 571.890625 316.394531 581.191406 312.5625 590.039062 312.5625 C 592.59375 312.5625 595.144531 312.929688 597.609375 313.566406 C 608.644531 316.484375 617.398438 325.605469 622.503906 339.375 C 627.886719 354.058594 628.25 371.933594 623.601562 389.71875 Z M 623.601562 389.71875 " fill-opacity="1" fill-rule="nonzero"/><path fill="#ffffff" d="M 302.304688 340.378906 C 314.710938 352.691406 328.9375 359.167969 343.164062 359.167969 C 346.082031 359.167969 349 358.894531 351.917969 358.347656 C 368.972656 355.0625 383.019531 342.660156 391.40625 323.324219 C 399.433594 304.996094 401.441406 282.378906 397.0625 259.667969 C 392.683594 236.960938 382.46875 216.714844 368.242188 202.667969 C 353.46875 187.804688 335.777344 181.511719 318.722656 184.703125 C 301.757812 187.988281 287.714844 200.390625 279.234375 219.722656 C 271.207031 238.054688 269.203125 260.671875 273.578125 283.378906 C 277.867188 305.996094 288.078125 326.246094 302.304688 340.378906 Z M 293.003906 225.742188 C 299.386719 211.058594 309.601562 201.757812 321.640625 199.476562 C 323.554688 199.113281 325.5625 198.929688 327.570312 198.929688 C 337.875 198.929688 348.453125 203.945312 357.9375 213.339844 C 370.066406 225.285156 378.824219 242.796875 382.5625 262.496094 C 386.300781 282.195312 384.660156 301.710938 377.820312 317.308594 C 371.433594 331.988281 361.222656 341.292969 349.183594 343.570312 C 337.144531 345.851562 324.195312 340.925781 312.886719 329.710938 C 300.757812 317.761719 292 300.253906 288.261719 280.554688 C 284.429688 260.761719 286.164062 241.339844 293.003906 225.742188 Z M 293.003906 225.742188 " fill-opacity="1" fill-rule="nonzero"/><path fill="#ffffff" d="M 450.871094 358.984375 C 453.695312 359.53125 456.523438 359.804688 459.441406 359.804688 C 473.578125 359.804688 487.804688 352.964844 500.390625 339.832031 C 514.617188 325.058594 525.105469 303.808594 529.847656 280.097656 C 534.679688 256.386719 533.222656 232.765625 525.835938 213.523438 C 517.992188 193.277344 504.496094 180.234375 487.621094 176.769531 C 470.75 173.394531 453.242188 180.144531 438.101562 195.828125 C 423.875 210.605469 413.386719 231.851562 408.644531 255.566406 C 403.8125 279.277344 405.269531 302.898438 412.65625 322.140625 C 420.5 342.476562 433.996094 355.519531 450.871094 358.984375 Z M 423.328125 258.574219 C 427.523438 237.597656 436.640625 218.996094 448.953125 206.226562 C 460.355469 194.371094 473.03125 189.082031 484.703125 191.453125 C 496.378906 193.824219 506.042969 203.582031 511.882812 218.902344 C 518.265625 235.410156 519.449219 256.113281 515.164062 277.089844 C 510.96875 298.0625 501.851562 316.667969 489.539062 329.4375 C 478.136719 341.292969 465.460938 346.582031 453.789062 344.210938 C 442.113281 341.839844 432.449219 332.082031 426.609375 316.757812 C 420.226562 300.253906 419.042969 279.640625 423.328125 258.574219 Z M 423.328125 258.574219 " fill-opacity="1" fill-rule="nonzero"/></svg>