<svg xmlns="http://www.w3.org/2000/svg" xmlns:xlink="http://www.w3.org/1999/xlink" width="1080" zoomAndPan="magnify" viewBox="0 0 810 809.999993" height="1080" preserveAspectRatio="xMidYMid meet" version="1.0"><defs><clipPath id="5014a47434"><path d="M 9.542969 9.542969 L 800.453125 9.542969 L 800.453125 800.453125 L 9.542969 800.453125 Z M 9.542969 9.542969 " clip-rule="nonzero"/></clipPath><clipPath id="16bed872a4"><path d="M 405 9.542969 C 186.597656 9.542969 9.542969 186.597656 9.542969 405 C 9.542969 623.402344 186.597656 800.453125 405 800.453125 C 623.402344 800.453125 800.453125 623.402344 800.453125 405 C 800.453125 186.597656 623.402344 9.542969 405 9.542969 Z M 405 9.542969 " clip-rule="nonzero"/></clipPath><clipPath id="de64ba1c22"><path d="M 142 131.371094 L 678.871094 131.371094 L 678.871094 668 L 142 668 Z M 142 131.371094 " clip-rule="nonzero"/></clipPath></defs><g clip-path="url(#5014a47434)"><g clip-path="url(#16bed872a4)"><path stroke-linecap="butt" transform="matrix(0.75, 0, 0, 0.75, 9.544525, 9.544541)" fill="none" stroke-linejoin="miter" d="M 527.273993 -0.00209681 C 236.070854 -0.00209681 -0.00207481 236.070832 -0.00207481 527.273971 C -0.00207481 818.477111 236.070854 1054.544831 527.273993 1054.544831 C 818.477133 1054.544831 1054.544853 818.477111 1054.544853 527.273971 C 1054.544853 236.070832 818.477133 -0.00209681 527.273993 -0.00209681 Z M 527.273993 -0.00209681 " stroke="#ffffff" stroke-width="50" stroke-opacity="1" stroke-miterlimit="4"/></g></g><g clip-path="url(#de64ba1c22)"><path fill="#ffffff" d="M 378.203125 364.9375 L 281.625 394.34375 C 259.347656 361.765625 215.210938 351.324219 180.410156 371.425781 C 143.878906 392.519531 131.335938 439.300781 152.425781 475.832031 C 173.519531 512.363281 220.304688 524.898438 256.835938 503.808594 C 259.15625 502.46875 336.316406 457.304688 375.796875 434.203125 C 352.679688 473.679688 307.53125 550.839844 306.1875 553.160156 C 285.097656 589.695312 297.625 636.476562 334.152344 657.570312 C 370.683594 678.660156 417.472656 666.117188 438.5625 629.59375 C 458.660156 594.800781 448.246094 550.714844 415.640625 528.375 L 445 431.960938 L 629.484375 352.402344 C 651.167969 343.046875 667.878906 324.929688 675.449219 302.550781 L 677.804688 295.59375 C 678.625 293.15625 678.050781 290.464844 676.289062 288.585938 C 674.527344 286.707031 671.875 285.953125 669.378906 286.621094 L 469.929688 340.0625 L 523.382812 140.609375 C 524.042969 138.121094 523.277344 135.472656 521.410156 133.710938 C 519.527344 131.949219 516.839844 131.367188 514.398438 132.191406 C 514.398438 132.191406 511.589844 133.144531 507.472656 134.539062 C 485.070312 142.113281 466.945312 158.835938 457.59375 180.550781 Z M 410.421875 426.230469 L 430.503906 431.660156 L 400.757812 529.382812 C 400.113281 531.5 400.496094 533.792969 401.824219 535.570312 C 402.519531 536.527344 404.089844 537.558594 403.898438 537.445312 C 433.539062 554.757812 443.65625 592.847656 426.472656 622.613281 C 409.238281 652.476562 370.996094 662.714844 341.132812 645.484375 C 311.28125 628.242188 301.023438 590.003906 318.261719 560.140625 C 319.882812 557.355469 384.429688 447.066406 398.492188 423.050781 Z M 331.957031 568.046875 C 319.082031 590.347656 326.738281 618.914062 349.035156 631.789062 C 371.347656 644.667969 399.902344 637.015625 412.796875 614.710938 C 425.671875 592.40625 418.011719 563.839844 395.699219 550.964844 C 373.40625 538.085938 344.828125 545.742188 331.957031 568.046875 Z M 344.046875 575.023438 C 353.082031 559.390625 373.089844 554.023438 388.722656 563.050781 C 404.371094 572.078125 409.726562 592.097656 400.707031 607.730469 C 391.671875 623.367188 371.660156 628.730469 356.011719 619.703125 C 340.382812 610.679688 335.027344 590.65625 344.046875 575.023438 Z M 378.359375 379.476562 L 386.941406 411.507812 C 362.902344 425.570312 252.632812 490.113281 249.859375 491.722656 C 219.992188 508.960938 181.753906 498.714844 164.515625 468.855469 C 147.28125 438.992188 157.523438 400.753906 187.386719 383.511719 C 217.148438 366.328125 255.230469 376.453125 272.554688 406.085938 C 272.570312 406.113281 272.589844 406.136719 272.589844 406.160156 C 273.828125 408.21875 276.042969 409.5 278.453125 409.542969 C 279.238281 409.558594 280.003906 409.441406 280.71875 409.207031 Z M 241.957031 478.03125 C 264.25 465.152344 271.910156 436.589844 259.035156 414.285156 C 246.160156 391.980469 217.585938 384.324219 195.289062 397.203125 C 172.976562 410.082031 165.335938 438.644531 178.210938 460.949219 C 191.085938 483.253906 219.644531 490.910156 241.957031 478.03125 Z M 234.976562 465.945312 C 219.347656 474.972656 199.320312 469.605469 190.300781 453.972656 C 181.265625 438.335938 186.636719 418.316406 202.269531 409.289062 C 217.898438 400.265625 237.925781 405.628906 246.945312 421.261719 C 255.964844 436.898438 250.609375 456.917969 234.976562 465.945312 Z M 461.886719 356.667969 L 660.117188 303.550781 C 653.101562 319.652344 640.210938 332.574219 623.953125 339.585938 C 623.953125 339.585938 439.347656 419.203125 439.347656 419.203125 C 439.171875 419.277344 438.980469 419.324219 438.808594 419.339844 L 414.050781 412.75 L 400.757812 409.15625 L 391.898438 375.863281 Z M 433.3125 402.273438 C 439.660156 400.574219 443.429688 394.042969 441.738281 387.695312 C 440.027344 381.347656 433.503906 377.574219 427.152344 379.277344 C 420.804688 380.976562 417.035156 387.507812 418.726562 393.859375 C 420.4375 400.203125 426.960938 403.976562 433.3125 402.273438 Z M 454.367188 344.234375 L 395.527344 360 L 470.417969 186.070312 C 477.414062 169.804688 490.339844 156.898438 506.441406 149.882812 Z M 454.367188 344.234375 " fill-opacity="1" fill-rule="evenodd"/></g></svg>