<svg xmlns="http://www.w3.org/2000/svg" xmlns:xlink="http://www.w3.org/1999/xlink" width="1080" zoomAndPan="magnify" viewBox="0 0 810 809.999993" height="1080" preserveAspectRatio="xMidYMid meet" version="1.0"><defs><clipPath id="56cc874cbf"><path d="M 140 461 L 577 461 L 577 694.003906 L 140 694.003906 Z M 140 461 " clip-rule="nonzero"/></clipPath></defs><path fill="#ffffff" d="M 260.890625 574.042969 C 265.664062 579.09375 271.296875 583.054688 277.695312 585.847656 C 284.292969 588.714844 291.351562 590.1875 298.664062 590.1875 C 311.988281 590.1875 322.421875 587.597656 332.523438 585.109375 C 342.90625 582.546875 352.707031 580.109375 365.777344 580.363281 L 366.03125 580.363281 C 366.617188 580.363281 367.199219 580.335938 367.757812 580.335938 C 379.96875 580.335938 389.359375 582.671875 399.285156 585.109375 C 409.363281 587.597656 419.796875 590.1875 433.125 590.1875 C 440.433594 590.1875 447.492188 588.738281 454.089844 585.847656 C 460.488281 583.054688 466.125 579.09375 470.894531 574.042969 C 475.617188 569.042969 479.195312 563.253906 481.582031 556.832031 C 484.042969 550.179688 485.085938 543.148438 484.652344 535.941406 C 483.816406 521.371094 476.734375 507.816406 465.234375 498.753906 C 453.710938 489.664062 443.988281 478.164062 436.320312 464.585938 C 429.390625 452.300781 419.339844 441.992188 407.230469 434.785156 C 394.769531 427.347656 380.5 423.410156 365.90625 423.410156 L 365.804688 423.410156 C 351.234375 423.4375 336.96875 427.371094 324.527344 434.785156 C 312.421875 442.019531 302.367188 452.324219 295.4375 464.585938 C 287.773438 478.164062 278.050781 489.664062 266.527344 498.753906 C 255.027344 507.816406 247.945312 521.371094 247.105469 535.941406 C 246.675781 543.148438 247.714844 550.179688 250.179688 556.832031 C 252.5625 563.253906 256.167969 569.042969 260.890625 574.042969 Z M 261.347656 536.777344 C 261.957031 526.269531 267.058594 516.496094 275.359375 509.945312 C 288.355469 499.691406 299.273438 486.796875 307.851562 471.589844 C 319.65625 450.675781 341.867188 437.675781 365.855469 437.652344 C 389.84375 437.652344 412.078125 450.675781 423.882812 471.589844 C 432.464844 486.796875 443.378906 499.691406 456.375 509.945312 C 464.675781 516.496094 469.777344 526.269531 470.386719 536.777344 C 470.996094 547.085938 467.46875 556.855469 460.488281 564.242188 C 453.40625 571.757812 443.65625 575.894531 433.074219 575.894531 C 421.472656 575.894531 412.332031 573.636719 402.664062 571.25 C 392.332031 568.6875 381.667969 566.046875 367.757812 566.046875 C 367.148438 566.046875 366.515625 566.046875 365.878906 566.070312 L 365.828125 566.070312 C 350.980469 565.816406 339.835938 568.585938 329.046875 571.25 C 319.375 573.636719 310.210938 575.894531 298.636719 575.894531 C 288.050781 575.894531 278.328125 571.757812 271.222656 564.242188 C 264.265625 556.855469 260.738281 547.109375 261.347656 536.777344 Z M 261.347656 536.777344 " fill-opacity="1" fill-rule="nonzero"/><path fill="#ffffff" d="M 380.730469 332.636719 C 375.628906 344.238281 372.988281 358.300781 373.648438 370.257812 C 374.308594 382.1875 378.421875 393.304688 385.199219 401.53125 C 388.675781 405.742188 392.660156 408.992188 397.078125 411.226562 C 401.34375 413.382812 405.835938 414.476562 410.40625 414.476562 C 410.9375 414.476562 411.46875 414.449219 412.003906 414.425781 C 417.132812 414.144531 422.003906 412.523438 426.5 409.601562 C 430.636719 406.910156 434.242188 403.230469 437.234375 398.660156 C 443.074219 389.726562 445.917969 378.226562 445.257812 366.296875 C 444.597656 354.367188 440.382812 340.660156 433.960938 329.691406 C 426.371094 316.644531 416.902344 309.539062 407.179688 309.539062 C 406.824219 309.539062 406.445312 309.539062 406.089844 309.5625 C 396.035156 310.097656 387.027344 318.292969 380.730469 332.636719 Z M 406.925781 323.777344 C 407.027344 323.777344 407.128906 323.777344 407.207031 323.777344 C 411.496094 323.777344 416.902344 328.675781 421.675781 336.851562 C 426.929688 345.835938 430.507812 357.4375 431.042969 367.082031 C 431.550781 375.992188 429.492188 384.445312 425.304688 390.867188 C 421.574219 396.605469 416.574219 399.90625 411.214844 400.210938 C 410.9375 400.234375 410.683594 400.234375 410.40625 400.234375 C 405.328125 400.234375 400.328125 397.519531 396.164062 392.492188 C 391.289062 386.578125 388.34375 378.40625 387.835938 369.496094 C 387.304688 359.824219 389.5625 347.894531 393.726562 338.398438 C 397.636719 329.589844 402.664062 324.007812 406.925781 323.777344 Z M 406.925781 323.777344 " fill-opacity="1" fill-rule="nonzero"/><path fill="#ffffff" d="M 491.40625 482.660156 C 496.535156 482.125 501.304688 480.273438 505.648438 477.148438 C 509.65625 474.257812 513.085938 470.398438 515.851562 465.703125 C 521.257812 456.488281 523.566406 444.886719 522.324219 433.007812 C 521.105469 421.101562 516.230469 407.648438 509.328125 396.960938 C 501.382812 384.699219 491.964844 378.074219 482.570312 378.074219 C 481.886719 378.074219 481.203125 378.101562 480.542969 378.175781 C 470.488281 379.21875 461.859375 387.824219 456.273438 402.445312 C 451.730469 414.273438 449.75 428.4375 450.992188 440.34375 C 452.210938 452.222656 456.832031 463.136719 464.015625 471.03125 C 467.671875 475.070312 471.835938 478.140625 476.351562 480.144531 C 481.175781 482.355469 486.277344 483.191406 491.40625 482.660156 Z M 474.550781 461.488281 C 469.398438 455.828125 466.074219 447.804688 465.160156 438.894531 C 464.167969 429.25 465.84375 417.242188 469.574219 407.546875 C 473.003906 398.609375 477.773438 392.796875 482.015625 392.339844 C 482.191406 392.316406 482.367188 392.316406 482.570312 392.316406 C 486.964844 392.316406 492.726562 397.292969 497.980469 405.589844 C 503.464844 414.246094 507.167969 424.78125 508.160156 434.429688 C 509.074219 443.3125 507.449219 451.84375 503.566406 458.441406 C 500.085938 464.332031 495.265625 467.886719 489.933594 468.445312 C 489.453125 468.496094 488.96875 468.519531 488.488281 468.519531 C 483.613281 468.546875 478.738281 466.082031 474.550781 461.488281 Z M 474.550781 461.488281 " fill-opacity="1" fill-rule="nonzero"/><path fill="#ffffff" d="M 334.65625 411.226562 C 339.074219 408.992188 343.058594 405.742188 346.539062 401.53125 C 353.316406 393.304688 357.425781 382.1875 358.085938 370.257812 C 358.746094 358.300781 356.105469 344.238281 351.003906 332.636719 C 344.710938 318.296875 335.699219 310.097656 325.59375 309.539062 C 315.519531 308.980469 305.617188 316.113281 297.722656 329.667969 C 291.328125 340.660156 287.085938 354.339844 286.425781 366.269531 C 285.765625 378.203125 288.609375 389.703125 294.449219 398.636719 C 297.417969 403.207031 301.046875 406.886719 305.1875 409.578125 C 309.679688 412.496094 314.554688 414.121094 319.679688 414.398438 C 324.882812 414.703125 329.910156 413.613281 334.65625 411.226562 Z M 306.429688 390.84375 C 302.242188 384.421875 300.210938 375.992188 300.691406 367.058594 C 301.226562 357.414062 304.832031 345.835938 310.058594 336.824219 C 314.832031 328.652344 320.238281 323.753906 324.527344 323.753906 C 324.628906 323.753906 324.730469 323.753906 324.832031 323.753906 C 329.097656 323.980469 334.125 329.589844 337.957031 338.347656 C 342.121094 347.84375 344.378906 359.773438 343.847656 369.445312 C 343.339844 378.355469 340.394531 386.527344 335.519531 392.441406 C 331.382812 397.46875 326.355469 400.183594 321.28125 400.183594 C 321.027344 400.183594 320.746094 400.183594 320.492188 400.160156 C 315.164062 399.878906 310.160156 396.582031 306.429688 390.84375 Z M 306.429688 390.84375 " fill-opacity="1" fill-rule="nonzero"/><path fill="#ffffff" d="M 267.769531 471.058594 C 274.953125 463.164062 279.574219 452.25 280.792969 440.367188 C 282.011719 428.464844 280.054688 414.296875 275.511719 402.46875 C 269.902344 387.847656 261.269531 379.242188 251.246094 378.203125 C 250.558594 378.125 249.898438 378.101562 249.214844 378.101562 C 239.820312 378.101562 230.402344 384.726562 222.457031 396.988281 C 215.527344 407.648438 210.679688 421.128906 209.460938 433.03125 C 208.242188 444.914062 210.527344 456.539062 215.933594 465.726562 C 218.703125 470.421875 222.128906 474.28125 226.140625 477.175781 C 230.480469 480.296875 235.277344 482.152344 240.378906 482.683594 C 241.371094 482.785156 242.359375 482.835938 243.351562 482.835938 C 247.460938 482.835938 251.523438 481.949219 255.457031 480.195312 C 259.953125 478.164062 264.113281 475.09375 267.769531 471.058594 Z M 243.273438 468.546875 C 242.792969 468.546875 242.308594 468.519531 241.828125 468.46875 C 236.496094 467.910156 231.671875 464.382812 228.195312 458.46875 C 224.3125 451.867188 222.6875 443.339844 223.601562 434.453125 C 224.589844 424.78125 228.324219 414.273438 233.78125 405.617188 C 239.035156 397.292969 244.796875 392.339844 249.1875 392.339844 C 249.390625 392.339844 249.570312 392.339844 249.746094 392.367188 C 253.984375 392.796875 258.757812 398.636719 262.183594 407.570312 C 265.890625 417.269531 267.59375 429.273438 266.601562 438.921875 C 265.6875 447.804688 262.335938 455.828125 257.210938 461.511719 C 253.019531 466.082031 248.148438 468.546875 243.273438 468.546875 Z M 243.273438 468.546875 " fill-opacity="1" fill-rule="nonzero"/><path fill="#ffffff" d="M 454.015625 284.507812 C 487.292969 301.617188 535.601562 324.160156 570.300781 340.074219 C 572.789062 341.21875 575.605469 340.761719 577.609375 339.160156 C 578.421875 338.5 579.109375 337.664062 579.566406 336.648438 C 581.164062 333.144531 579.640625 328.980469 576.140625 327.382812 C 541.589844 311.542969 493.460938 289.078125 460.4375 272.09375 C 447.441406 265.417969 438.859375 257.015625 433.785156 245.722656 L 563.445312 297.503906 C 567.027344 298.925781 571.113281 297.199219 572.535156 293.597656 C 573.957031 290.015625 572.230469 285.929688 568.625 284.507812 L 425.332031 227.265625 C 422.945312 226.328125 420.226562 226.757812 418.273438 228.382812 C 416.292969 230.035156 415.378906 232.621094 415.886719 235.136719 C 420.40625 257.753906 432.515625 273.441406 454.015625 284.507812 Z M 454.015625 284.507812 " fill-opacity="1" fill-rule="nonzero"/><path fill="#ffffff" d="M 791.675781 322 C 779.570312 298.773438 750.808594 289.738281 727.582031 301.847656 C 720.371094 305.601562 714.230469 311.160156 709.8125 317.914062 C 707.707031 321.136719 708.59375 325.480469 711.84375 327.585938 C 715.066406 329.691406 719.410156 328.804688 721.515625 325.554688 C 724.636719 320.78125 728.976562 316.875 734.054688 314.234375 C 750.453125 305.679688 770.734375 312.074219 779.289062 328.449219 C 787.84375 344.847656 781.449219 365.128906 765.074219 373.683594 C 757.128906 377.820312 748.066406 378.632812 739.511719 375.941406 C 733.648438 374.089844 728.546875 370.765625 724.5625 366.296875 C 723.496094 365.207031 720.804688 361.5 719.839844 359.441406 C 718.011719 355.585938 716.640625 351.625 716.210938 347.4375 C 716.210938 347.4375 716.210938 347.410156 716.210938 347.410156 C 716.183594 347.234375 716.160156 347.03125 716.132812 346.851562 C 716.132812 346.800781 716.109375 346.75 716.109375 346.699219 C 716.082031 346.523438 716.03125 346.371094 715.980469 346.21875 C 715.957031 346.167969 715.957031 346.089844 715.929688 346.039062 C 715.878906 345.914062 715.855469 345.8125 715.804688 345.683594 C 715.726562 345.480469 715.625 345.277344 715.550781 345.074219 C 715.5 344.972656 715.472656 344.871094 715.398438 344.796875 C 715.371094 344.746094 715.347656 344.695312 715.296875 344.644531 C 714.585938 343.425781 713.492188 342.410156 712.121094 341.800781 C 712.046875 341.777344 711.996094 341.726562 711.917969 341.699219 C 711.894531 341.699219 711.894531 341.675781 711.867188 341.675781 L 658.207031 320.25 C 654.628906 318.828125 650.539062 320.554688 649.117188 324.160156 C 647.699219 327.738281 649.421875 331.824219 653.027344 333.246094 L 655.085938 334.085938 C 652.46875 335.53125 650.996094 338.550781 651.632812 341.625 C 652.417969 345.40625 656.101562 347.84375 659.882812 347.054688 C 666 345.785156 672.191406 345.683594 678.335938 346.726562 C 692.652344 350.480469 703.671875 362.058594 709.203125 368.988281 C 711.183594 371.578125 711.867188 372.972656 713.390625 374.773438 C 713.621094 375.105469 713.898438 375.410156 714.179688 375.6875 C 719.8125 382.007812 727.050781 386.707031 735.324219 389.296875 C 747.433594 393.101562 760.300781 391.960938 771.546875 386.097656 C 774.390625 384.625 777.03125 382.871094 779.417969 380.945312 C 796.628906 367.03125 802.289062 342.382812 791.675781 322 Z M 791.675781 322 " fill-opacity="1" fill-rule="nonzero"/><path fill="#ffffff" d="M 636.910156 438.058594 C 635.257812 436.027344 633.101562 433.386719 631.375 431.710938 C 625.765625 424.832031 616.804688 411.632812 616.144531 396.835938 C 617.363281 368.9375 641.222656 354.113281 641.476562 353.984375 C 644.015625 352.4375 645.3125 349.46875 644.703125 346.574219 C 644.449219 345.40625 620.027344 229.09375 602.742188 164.492188 C 596.496094 141.136719 583.703125 125.984375 562.53125 116.769531 C 560.171875 115.753906 557.457031 116.082031 555.449219 117.683594 C 553.445312 119.257812 552.429688 121.820312 552.863281 124.359375 L 604.164062 428.566406 C 604.164062 428.566406 604.164062 428.589844 604.164062 428.589844 C 604.1875 428.742188 604.214844 428.871094 604.265625 429.023438 C 604.289062 429.125 604.316406 429.199219 604.316406 429.300781 C 604.339844 429.378906 604.367188 429.453125 604.390625 429.527344 C 604.695312 430.519531 605.203125 431.382812 605.863281 432.117188 C 605.890625 432.167969 605.941406 432.195312 605.964844 432.246094 C 606.042969 432.320312 606.117188 432.398438 606.195312 432.472656 C 606.269531 432.550781 606.371094 432.652344 606.449219 432.726562 C 606.472656 432.726562 606.472656 432.753906 606.5 432.753906 C 606.753906 432.980469 607.03125 433.160156 607.3125 433.363281 C 607.386719 433.414062 607.464844 433.464844 607.539062 433.515625 C 607.589844 433.539062 607.640625 433.566406 607.691406 433.589844 C 607.84375 433.667969 607.996094 433.769531 608.175781 433.820312 C 608.199219 433.84375 608.226562 433.84375 608.277344 433.84375 C 608.453125 433.921875 608.65625 433.996094 608.859375 434.074219 C 608.859375 434.074219 608.859375 434.074219 608.882812 434.074219 C 612.894531 435.394531 616.652344 437.347656 619.851562 440.164062 C 622.238281 442.273438 624.191406 444.277344 625.535156 446.230469 C 629.066406 451.054688 631.222656 456.765625 631.808594 462.882812 C 632.617188 471.792969 629.929688 480.5 624.191406 487.378906 C 618.453125 494.257812 610.40625 498.5 601.472656 499.335938 C 592.5625 500.148438 583.855469 497.457031 576.976562 491.722656 C 565.679688 482.328125 561.796875 466.871094 567.355469 453.261719 C 568.652344 450.089844 570.425781 447.144531 572.636719 444.507812 C 576.292969 440.089844 581.039062 436.6875 586.367188 434.65625 C 589.972656 433.261719 591.777344 429.226562 590.378906 425.621094 C 588.984375 422.015625 584.949219 420.214844 581.34375 421.609375 C 573.804688 424.503906 567.078125 429.324219 561.871094 435.570312 C 558.75 439.328125 556.238281 443.492188 554.410156 447.984375 C 546.539062 467.25 552.023438 489.15625 568.042969 502.457031 C 585.707031 517.15625 610.992188 516.824219 628.253906 502.914062 C 630.664062 500.984375 632.898438 498.777344 634.953125 496.316406 C 643.078125 486.566406 646.886719 474.230469 645.742188 461.589844 C 644.929688 452.933594 641.882812 444.886719 636.910156 438.058594 Z M 608.632812 370.941406 L 569.082031 136.492188 C 579.058594 143.855469 585.453125 154.007812 589.238281 168.121094 C 604.519531 225.132812 625.410156 322.914062 630.082031 344.949219 C 629.648438 345.277344 629.21875 345.632812 628.734375 345.988281 C 623.152344 350.507812 614.519531 358.832031 608.632812 370.941406 Z M 608.632812 370.941406 " fill-opacity="1" fill-rule="nonzero"/><path fill="#ffffff" d="M 622.007812 324.894531 C 618.605469 320.679688 612.4375 320.019531 608.199219 323.421875 C 603.984375 326.824219 603.324219 332.992188 606.726562 337.230469 C 610.128906 341.445312 616.296875 342.105469 620.535156 338.703125 C 624.75 335.300781 625.410156 329.109375 622.007812 324.894531 Z M 622.007812 324.894531 " fill-opacity="1" fill-rule="nonzero"/><path fill="#ffffff" d="M 137.625 410.667969 C 138.816406 411.457031 140.136719 411.835938 141.457031 411.835938 C 143.714844 411.835938 145.949219 410.746094 147.296875 408.714844 C 149.429688 405.488281 148.539062 401.175781 145.316406 399.042969 L 109.703125 375.511719 L 115.414062 366.855469 L 151.027344 390.386719 C 152.21875 391.171875 153.539062 391.554688 154.859375 391.554688 C 157.121094 391.554688 159.351562 390.460938 160.699219 388.433594 C 162.832031 385.207031 161.941406 380.894531 158.71875 378.761719 L 123.105469 355.230469 L 128.816406 346.574219 L 164.429688 370.105469 C 165.621094 370.890625 166.941406 371.273438 168.261719 371.273438 C 170.523438 371.273438 172.757812 370.179688 174.101562 368.148438 C 176.234375 364.925781 175.34375 360.609375 172.121094 358.476562 L 136.507812 334.945312 L 142.140625 326.417969 L 177.757812 349.949219 C 178.949219 350.734375 180.269531 351.117188 181.589844 351.117188 C 183.847656 351.117188 186.082031 350.023438 187.429688 347.996094 C 189.558594 344.769531 188.671875 340.457031 185.449219 338.324219 L 149.832031 314.792969 L 155.546875 306.136719 L 191.160156 329.667969 C 192.351562 330.453125 193.671875 330.835938 194.992188 330.835938 C 197.25 330.835938 199.484375 329.742188 200.832031 327.710938 C 202.964844 324.488281 202.074219 320.171875 198.851562 318.042969 L 163.238281 294.507812 L 168.871094 285.980469 L 204.484375 309.511719 C 205.679688 310.296875 207 310.679688 208.320312 310.679688 C 210.578125 310.679688 212.8125 309.589844 214.15625 307.558594 C 216.289062 304.332031 215.402344 300.019531 212.179688 297.886719 L 176.5625 274.355469 L 182.273438 265.699219 L 217.890625 289.230469 C 219.082031 290.015625 220.402344 290.398438 221.722656 290.398438 C 223.980469 290.398438 226.214844 289.304688 227.5625 287.273438 C 229.691406 284.050781 228.804688 279.734375 225.582031 277.605469 L 189.964844 254.074219 L 195.679688 245.417969 L 231.292969 268.949219 C 232.484375 269.734375 233.804688 270.117188 235.125 270.117188 C 237.382812 270.117188 239.617188 269.023438 240.964844 266.992188 C 243.097656 263.769531 242.207031 259.453125 238.984375 257.320312 L 203.371094 233.789062 L 209.082031 225.132812 L 244.695312 248.664062 C 245.886719 249.453125 247.207031 249.832031 248.527344 249.832031 C 250.789062 249.832031 253.019531 248.742188 254.367188 246.710938 C 256.5 243.488281 255.609375 239.171875 252.386719 237.039062 L 216.773438 213.507812 L 222.40625 204.980469 L 258.023438 228.511719 C 259.214844 229.296875 260.535156 229.679688 261.855469 229.679688 C 264.113281 229.679688 266.347656 228.585938 267.691406 226.554688 C 269.824219 223.332031 268.9375 219.015625 265.714844 216.882812 L 230.097656 193.351562 L 235.480469 185.230469 L 271.09375 208.761719 C 274.320312 210.894531 278.632812 210.003906 280.765625 206.78125 C 284.878906 200.5625 286.019531 193.25 284.015625 186.167969 C 282.164062 179.644531 277.796875 173.832031 271.679688 169.796875 L 238.527344 147.890625 C 231.597656 143.320312 223.625 141.46875 216.0625 142.6875 C 208.167969 143.953125 201.289062 148.5 196.691406 155.453125 L 13.671875 432.371094 C 9.078125 439.351562 7.707031 447.5 9.839844 455.320312 C 11.84375 462.605469 16.742188 469.152344 23.671875 473.722656 L 56.824219 495.628906 C 61.953125 499.03125 67.714844 500.832031 73.300781 500.832031 C 74.367188 500.832031 75.40625 500.757812 76.449219 500.628906 C 83.582031 499.742188 89.773438 495.832031 93.886719 489.613281 C 94.902344 488.066406 95.28125 486.1875 94.902344 484.359375 C 94.519531 482.558594 93.457031 480.957031 91.90625 479.941406 L 56.292969 456.410156 L 61.902344 447.933594 L 97.515625 471.464844 C 98.710938 472.25 100.03125 472.632812 101.351562 472.632812 C 103.609375 472.632812 105.84375 471.539062 107.1875 469.507812 C 109.320312 466.285156 108.433594 461.96875 105.207031 459.839844 L 69.59375 436.308594 L 75.304688 427.652344 L 110.917969 451.183594 C 112.113281 451.96875 113.433594 452.351562 114.753906 452.351562 C 117.011719 452.351562 119.246094 451.257812 120.589844 449.226562 C 122.722656 446.003906 121.835938 441.6875 118.609375 439.554688 L 82.996094 416.023438 L 88.632812 407.496094 L 124.246094 431.027344 C 125.441406 431.8125 126.757812 432.195312 128.078125 432.195312 C 130.339844 432.195312 132.574219 431.101562 133.917969 429.074219 C 136.050781 425.847656 135.160156 421.535156 131.9375 419.402344 L 96.296875 395.792969 L 102.007812 387.136719 Z M 40.757812 454.507812 C 39.742188 456.054688 39.359375 457.933594 39.742188 459.761719 C 40.121094 461.5625 41.1875 463.164062 42.738281 464.179688 L 76.371094 486.390625 C 75.839844 486.542969 75.28125 486.667969 74.695312 486.746094 C 71.472656 487.152344 67.84375 486.160156 64.515625 483.953125 L 31.363281 462.046875 C 27.277344 459.332031 24.410156 455.648438 23.316406 451.613281 C 22.253906 447.679688 22.9375 443.667969 25.324219 440.0625 L 208.394531 163.019531 C 211.390625 158.5 215.910156 156.140625 220.808594 156.140625 C 224.109375 156.140625 227.585938 157.207031 230.910156 159.390625 L 264.0625 181.296875 C 267.769531 183.757812 270.613281 187.617188 271.042969 191.804688 L 237.433594 169.59375 C 234.210938 167.460938 229.894531 168.347656 227.765625 171.574219 Z M 40.757812 454.507812 " fill-opacity="1" fill-rule="nonzero"/><g clip-path="url(#56cc874cbf)"><path fill="#ffffff" d="M 571.671875 543.023438 C 568.09375 541.601562 564.03125 543.351562 562.609375 546.933594 C 530.320312 627.933594 453.101562 680.25 365.90625 680.25 C 249.1875 680.25 154.226562 585.289062 154.226562 468.570312 C 154.226562 464.710938 151.101562 461.589844 147.246094 461.589844 C 143.386719 461.589844 140.265625 464.710938 140.265625 468.570312 C 140.265625 499.03125 146.230469 528.578125 158.007812 556.398438 C 169.378906 583.28125 185.652344 607.398438 206.363281 628.136719 C 227.078125 648.851562 251.21875 665.121094 278.101562 676.492188 C 305.921875 688.273438 335.46875 694.238281 365.929688 694.238281 C 411.976562 694.238281 456.25 680.453125 493.996094 654.410156 C 512.171875 641.84375 528.390625 626.742188 542.226562 609.480469 C 556.160156 592.066406 567.382812 572.773438 575.632812 552.136719 C 577.003906 548.503906 575.25 544.445312 571.671875 543.023438 Z M 571.671875 543.023438 " fill-opacity="1" fill-rule="nonzero"/></g><path fill="#ffffff" d="M 264.699219 274.53125 C 265.890625 277.019531 268.402344 278.492188 270.992188 278.492188 C 272.007812 278.492188 273.050781 278.265625 274.015625 277.808594 C 302.773438 263.921875 333.691406 256.890625 365.878906 256.890625 C 372.960938 256.890625 380.121094 257.246094 387.128906 257.929688 C 390.960938 258.3125 394.386719 255.519531 394.769531 251.6875 C 395.148438 247.851562 392.355469 244.425781 388.523438 244.046875 C 381.058594 243.308594 373.445312 242.929688 365.90625 242.929688 C 348.695312 242.929688 331.535156 244.882812 314.910156 248.714844 C 298.738281 252.449219 282.949219 258.007812 268 265.214844 C 264.496094 266.867188 263.023438 271.054688 264.699219 274.53125 Z M 264.699219 274.53125 " fill-opacity="1" fill-rule="nonzero"/></svg>