<svg xmlns="http://www.w3.org/2000/svg" xmlns:xlink="http://www.w3.org/1999/xlink" width="1080" zoomAndPan="magnify" viewBox="0 0 810 809.999993" height="1080" preserveAspectRatio="xMidYMid meet" version="1.0"><defs><clipPath id="4aeff5b0b8"><path d="M 9.542969 9.542969 L 800.453125 9.542969 L 800.453125 800.453125 L 9.542969 800.453125 Z M 9.542969 9.542969 " clip-rule="nonzero"/></clipPath><clipPath id="bd4191a69e"><path d="M 405 9.542969 C 186.597656 9.542969 9.542969 186.597656 9.542969 405 C 9.542969 623.402344 186.597656 800.453125 405 800.453125 C 623.402344 800.453125 800.453125 623.402344 800.453125 405 C 800.453125 186.597656 623.402344 9.542969 405 9.542969 Z M 405 9.542969 " clip-rule="nonzero"/></clipPath><clipPath id="dc7f9ab94b"><path d="M 111.371094 287 L 226 287 L 226 402 L 111.371094 402 Z M 111.371094 287 " clip-rule="nonzero"/></clipPath></defs><g clip-path="url(#4aeff5b0b8)"><g clip-path="url(#bd4191a69e)"><path stroke-linecap="butt" transform="matrix(0.75, 0, 0, 0.75, 9.544525, 9.544541)" fill="none" stroke-linejoin="miter" d="M 527.273993 -0.00209681 C 236.070854 -0.00209681 -0.00207481 236.070832 -0.00207481 527.273971 C -0.00207481 818.477111 236.070854 1054.544831 527.273993 1054.544831 C 818.477133 1054.544831 1054.544853 818.477111 1054.544853 527.273971 C 1054.544853 236.070832 818.477133 -0.00209681 527.273993 -0.00209681 Z M 527.273993 -0.00209681 " stroke="#ffffff" stroke-width="50" stroke-opacity="1" stroke-miterlimit="4"/></g></g><path fill="#ffffff" d="M 567.148438 607.257812 C 563.898438 639.765625 541.539062 656.851562 500.671875 658.035156 C 457.492188 652.542969 396.429688 673.703125 367.695312 631.359375 C 343.21875 595.324219 354.535156 565.425781 349.355469 428.125 C 345.722656 331.835938 367.195312 273.074219 466.578125 273.074219 C 524.351562 273.074219 558.882812 293.863281 563.707031 350.613281 C 578.785156 499.195312 569.039062 498.84375 567.148438 607.257812 Z M 408.515625 237.289062 C 409.800781 235.40625 494.628906 231.308594 514.390625 238.085938 C 514.828125 239.679688 516.070312 253.792969 515.824219 268.613281 C 487.734375 259.671875 441.347656 257.910156 407.339844 271.039062 C 407.804688 240.320312 407.625 238.605469 408.515625 237.289062 Z M 451.453125 195.886719 C 455.425781 195.480469 456.429688 195.382812 465.347656 195.59375 C 465.863281 201.132812 467 209.5625 466.183594 222.164062 C 461.269531 222.183594 456.4375 222.261719 451.867188 222.375 C 452.296875 213.570312 452.160156 204.683594 451.453125 195.886719 Z M 428.390625 184.207031 C 420.304688 178.519531 425.929688 163.71875 409.441406 156.597656 C 394.179688 150.011719 369.15625 153.734375 354.042969 154.371094 C 320.628906 155.777344 308.339844 201.035156 294.3125 191.554688 C 293.503906 181.113281 331.265625 143.375 340.9375 140.039062 C 353.386719 135.746094 373.535156 139.4375 487.699219 139.074219 C 487.875 143.1875 489.007812 180.425781 487.019531 184.152344 C 484.734375 185.253906 473.042969 184.210938 457.203125 184.175781 C 449.769531 184.144531 433.292969 187.652344 428.390625 184.207031 Z M 574.964844 349.5625 C 571.667969 310.777344 555.839844 286.257812 527.773438 273.238281 C 528.105469 263.394531 528.320312 236.5 524.074219 230.757812 C 519.59375 224.703125 499.074219 222.664062 477.5 222.246094 C 478.027344 213.46875 477.78125 204.648438 476.777344 195.910156 C 493.929688 196.289062 498.378906 194.738281 499.390625 175.289062 C 499.402344 175.117188 499.703125 148.609375 498.710938 133.039062 C 498.519531 130.054688 496.035156 127.738281 493.042969 127.746094 C 369.035156 128.269531 352.6875 124.027344 337.25 129.351562 C 330.402344 129.351562 286.582031 169.175781 283.253906 188.824219 C 281.582031 198.695312 289.402344 203.785156 297.792969 203.785156 C 321.324219 203.785156 327.648438 166.796875 354.519531 165.667969 C 368.753906 165.070312 392.675781 161.675781 404.957031 166.980469 C 417.835938 172.539062 406.386719 198.769531 440.175781 196.945312 C 440.476562 202.402344 441.1875 210.601562 440.53125 222.746094 C 390.296875 224.695312 396.042969 221.167969 395.21875 273.933594 C 395.203125 274.832031 395.351562 275.628906 395.613281 276.332031 C 318.5625 316.683594 339.652344 419.726562 339.664062 528.679688 C 339.664062 586.25 339.667969 610.144531 358.253906 637.574219 C 387.304688 685.917969 459.367188 663.964844 499.644531 669.300781 C 508.703125 670.507812 572.558594 668.601562 578.421875 608.128906 C 579.003906 602.082031 577.710938 599.167969 581.328125 533.628906 C 583.941406 486.304688 585.667969 455.042969 574.964844 349.5625 " fill-opacity="1" fill-rule="nonzero"/><path fill="#ffffff" d="M 414.234375 620.9375 C 385.433594 609.878906 383.203125 596.089844 382.953125 574.695312 C 382.863281 567.171875 371.5625 567.375 371.648438 574.828125 C 371.917969 597.835938 375.003906 617.980469 410.179688 631.492188 C 417.226562 634.199219 421.148438 623.589844 414.234375 620.9375 " fill-opacity="1" fill-rule="nonzero"/><path fill="#ffffff" d="M 535 225.332031 C 540.601562 235.675781 535.921875 247.136719 544.476562 247.136719 C 554.710938 247.136719 548.578125 226.667969 544.945312 219.949219 C 536.761719 204.839844 517.738281 203.855469 518.703125 213.515625 C 519.589844 222.355469 529 214.246094 535 225.332031 " fill-opacity="1" fill-rule="nonzero"/><path fill="#ffffff" d="M 375.535156 557.933594 C 385.992188 557.933594 377.554688 548.265625 380.144531 514.796875 C 380.722656 507.335938 369.449219 506.476562 368.871094 513.925781 C 367.867188 526.933594 368.226562 540.085938 369.9375 553.023438 C 370.3125 555.867188 372.742188 557.933594 375.535156 557.933594 " fill-opacity="1" fill-rule="nonzero"/><path fill="#ffffff" d="M 254.167969 238.078125 C 272.957031 238.078125 272.980469 266.507812 254.167969 266.507812 C 235.378906 266.507812 235.355469 238.078125 254.167969 238.078125 Z M 254.167969 277.8125 C 268.238281 277.8125 279.6875 266.363281 279.6875 252.289062 C 279.6875 238.21875 268.238281 226.773438 254.167969 226.773438 C 240.097656 226.773438 228.648438 238.21875 228.648438 252.289062 C 228.648438 266.363281 240.097656 277.8125 254.167969 277.8125 " fill-opacity="1" fill-rule="nonzero"/><g clip-path="url(#dc7f9ab94b)"><path fill="#ffffff" d="M 168.550781 390.441406 C 143.238281 390.441406 122.640625 369.84375 122.640625 344.53125 C 122.640625 319.21875 143.238281 298.625 168.550781 298.625 C 193.863281 298.625 214.457031 319.21875 214.457031 344.53125 C 214.457031 369.84375 193.863281 390.441406 168.550781 390.441406 Z M 225.761719 344.53125 C 225.761719 312.984375 200.097656 287.320312 168.550781 287.320312 C 137.003906 287.320312 111.339844 312.984375 111.339844 344.53125 C 111.339844 376.078125 137.003906 401.746094 168.550781 401.746094 C 200.097656 401.746094 225.761719 376.078125 225.761719 344.53125 " fill-opacity="1" fill-rule="nonzero"/></g><path fill="#ffffff" d="M 253.695312 496.398438 C 232.035156 496.398438 214.410156 478.773438 214.410156 457.113281 C 214.410156 435.453125 232.035156 417.828125 253.695312 417.828125 C 275.355469 417.828125 292.980469 435.453125 292.980469 457.113281 C 292.980469 478.773438 275.355469 496.398438 253.695312 496.398438 Z M 253.695312 406.523438 C 225.800781 406.523438 203.105469 429.21875 203.105469 457.113281 C 203.105469 485.007812 225.800781 507.703125 253.695312 507.703125 C 281.589844 507.703125 304.285156 485.007812 304.285156 457.113281 C 304.285156 429.21875 281.589844 406.523438 253.695312 406.523438 " fill-opacity="1" fill-rule="nonzero"/><path fill="#ffffff" d="M 148.441406 350.15625 C 147.78125 342.703125 136.519531 343.710938 137.179688 351.15625 C 138.796875 369.304688 161.382812 380.910156 163.929688 369.835938 C 166.074219 360.492188 149.753906 364.882812 148.441406 350.15625 " fill-opacity="1" fill-rule="nonzero"/><path fill="#ffffff" d="M 247.046875 470.753906 C 239.914062 468.691406 235.148438 459.855469 237.324219 452.765625 C 238.242188 449.78125 236.566406 446.617188 233.582031 445.699219 C 224.125 442.796875 223.683594 459.652344 228.75 469.019531 C 233.40625 477.636719 241.90625 481.839844 245.472656 481.839844 C 251.988281 481.839844 253.296875 472.566406 247.046875 470.753906 " fill-opacity="1" fill-rule="nonzero"/></svg>